<?xml version="1.0" encoding="UTF-8" standalone="no"?>
<!-- Created with Inkscape (http://www.inkscape.org/) -->

<svg
   width="1920"
   height="1080"
   viewBox="0 0 507.99999 285.75"
   version="1.1"
   id="svg1"
   inkscape:version="1.4.3 (0d15f75, 2025-12-25)"
   sodipodi:docname="error.svg"
   xmlns:inkscape="http://www.inkscape.org/namespaces/inkscape"
   xmlns:sodipodi="http://sodipodi.sourceforge.net/DTD/sodipodi-0.dtd"
   xmlns="http://www.w3.org/2000/svg"
   xmlns:svg="http://www.w3.org/2000/svg">
  <sodipodi:namedview
     id="namedview1"
     pagecolor="#ffffff"
     bordercolor="#000000"
     borderopacity="0.25"
     inkscape:showpageshadow="2"
     inkscape:pageopacity="0.0"
     inkscape:pagecheckerboard="0"
     inkscape:deskcolor="#d1d1d1"
     inkscape:document-units="mm"
     inkscape:zoom="0.35545034"
     inkscape:cx="979.03972"
     inkscape:cy="334.78657"
     inkscape:window-width="1920"
     inkscape:window-height="991"
     inkscape:window-x="-9"
     inkscape:window-y="-9"
     inkscape:window-maximized="1"
     inkscape:current-layer="layer1" />
  <defs
     id="defs1" />
  <g
     inkscape:label="Layer 1"
     inkscape:groupmode="layer"
     id="layer1">
    <path
       style="font-size:35.2777px;font-family:Montserrat;-inkscape-font-specification:'Montserrat, @wght=900';font-variation-settings:'wght' 900;text-align:center;letter-spacing:0px;text-anchor:middle;fill:#fafafa;stroke-width:1.5;stroke-linecap:round"
       d="M 1.8254104,257.95404 H 12.832052 v 5.99721 H 1.8254104 Z m 0.5644432,9.24276 H 14.737048 v 6.27943 H -5.7945724 V 248.78184 H 14.278438 v 6.27943 H 2.3898536 Z m 15.5574774,6.27943 v -24.69439 h 11.888584 q 3.457215,0 5.961931,1.12888 2.539995,1.12889 3.915825,3.24555 1.37583,2.08139 1.37583,4.93888 0,2.85749 -1.37583,4.93888 -1.37583,2.0461 -3.915825,3.13971 -2.504716,1.09361 -5.961931,1.09361 h -7.267206 l 3.704159,-3.42193 v 9.63081 z m 14.781356,0 -6.067765,-8.99582 h 8.819425 l 6.13832,8.99582 z m -6.455819,-8.71359 -3.704159,-3.77472 h 6.738041 q 1.728607,0 2.539994,-0.77611 0.846665,-0.77611 0.846665,-2.11666 0,-1.34055 -0.846665,-2.11666 -0.811387,-0.77611 -2.539994,-0.77611 h -6.738041 l 3.704159,-3.77471 z m 17.956379,8.71359 v -24.69439 h 11.888584 q 3.457214,0 5.961931,1.12888 2.539994,1.12889 3.915825,3.24555 1.37583,2.08139 1.37583,4.93888 0,2.85749 -1.37583,4.93888 -1.375831,2.0461 -3.915825,3.13971 -2.504717,1.09361 -5.961931,1.09361 h -7.267206 l 3.704158,-3.42193 v 9.63081 z m 14.781355,0 -6.067764,-8.99582 h 8.819425 l 6.138319,8.99582 z m -6.455819,-8.71359 -3.704158,-3.77472 h 6.73804 q 1.728608,0 2.539995,-0.77611 0.846665,-0.77611 0.846665,-2.11666 0,-1.34055 -0.846665,-2.11666 -0.811387,-0.77611 -2.539995,-0.77611 h -6.73804 l 3.704158,-3.77471 z m 30.903293,9.27803 q -2.998605,0 -5.573877,-0.9525 -2.539994,-0.9525 -4.409712,-2.6811 -1.869718,-1.76389 -2.928049,-4.12749 -1.023053,-2.36361 -1.023053,-5.15055 0,-2.82221 1.023053,-5.15054 1.058331,-2.36361 2.928049,-4.09221 1.869718,-1.76389 4.409712,-2.71639 2.575272,-0.9525 5.573877,-0.9525 3.033882,0 5.573876,0.9525 2.539994,0.9525 4.409712,2.71639 1.869718,1.7286 2.892772,4.09221 1.058331,2.32833 1.058331,5.15054 0,2.78694 -1.058331,5.15055 -1.023054,2.3636 -2.892772,4.12749 -1.869718,1.7286 -4.409712,2.6811 -2.539994,0.9525 -5.573876,0.9525 z m 0,-6.73804 q 1.164164,0 2.151939,-0.42333 1.023054,-0.42334 1.763885,-1.19944 0.77611,-0.81139 1.199442,-1.94028 0.423332,-1.16416 0.423332,-2.61055 0,-1.44638 -0.423332,-2.57527 -0.423332,-1.16416 -1.199442,-1.94027 -0.740831,-0.81139 -1.763885,-1.23472 -0.987775,-0.42333 -2.151939,-0.42333 -1.164164,0 -2.187218,0.42333 -0.987775,0.42333 -1.763885,1.23472 -0.740831,0.77611 -1.164164,1.94027 -0.423332,1.12889 -0.423332,2.57527 0,1.44639 0.423332,2.61055 0.423333,1.12889 1.164164,1.94028 0.77611,0.7761 1.763885,1.19944 1.023054,0.42333 2.187218,0.42333 z m 16.968554,6.1736 v -24.69439 h 11.88859 q 3.45721,0 5.96193,1.12888 2.53999,1.12889 3.91582,3.24555 1.37583,2.08139 1.37583,4.93888 0,2.85749 -1.37583,4.93888 -1.37583,2.0461 -3.91582,3.13971 -2.50472,1.09361 -5.96193,1.09361 h -7.26721 l 3.70416,-3.42193 v 9.63081 z m 14.78136,0 -6.06776,-8.99582 h 8.81942 l 6.13832,8.99582 z m -6.45582,-8.71359 -3.70416,-3.77472 h 6.73804 q 1.72861,0 2.54,-0.77611 0.84666,-0.77611 0.84666,-2.11666 0,-1.34055 -0.84666,-2.11666 -0.81139,-0.77611 -2.54,-0.77611 h -6.73804 l 3.70416,-3.77471 z"
       id="text1-8"
       transform="rotate(-5.8279329)"
       aria-label="ERROR" />
    <path
       style="font-size:35.2777px;font-family:Montserrat;-inkscape-font-specification:'Montserrat, @wght=900';font-variation-settings:'wght' 900;text-align:center;letter-spacing:0px;text-anchor:middle;fill:#fafafa;stroke-width:1.5;stroke-linecap:round"
       d="m 132.87327,271.32995 h 11.00664 v 5.99721 h -11.00664 z m 0.56444,9.24276 h 12.3472 v 6.27943 h -20.53162 v -24.69439 h 20.07301 v 6.27943 h -11.88859 z m 15.55748,6.27943 v -24.69439 h 11.88858 q 3.45722,0 5.96194,1.12889 2.53999,1.12889 3.91582,3.24555 1.37583,2.08138 1.37583,4.93888 0,2.85749 -1.37583,4.93887 -1.37583,2.04611 -3.91582,3.13972 -2.50472,1.09361 -5.96194,1.09361 h -7.2672 l 3.70416,-3.42194 v 9.63081 z m 14.78136,0 -6.06777,-8.99581 h 8.81943 l 6.13832,8.99581 z m -6.45582,-8.71359 -3.70416,-3.77471 h 6.73804 q 1.72861,0 2.53999,-0.77611 0.84667,-0.77611 0.84667,-2.11666 0,-1.34056 -0.84667,-2.11667 -0.81138,-0.77611 -2.53999,-0.77611 h -6.73804 l 3.70416,-3.77471 z m 17.95638,8.71359 v -24.69439 h 11.88858 q 3.45721,0 5.96193,1.12889 2.54,1.12889 3.91583,3.24555 1.37583,2.08138 1.37583,4.93888 0,2.85749 -1.37583,4.93887 -1.37583,2.04611 -3.91583,3.13972 -2.50472,1.09361 -5.96193,1.09361 h -7.26721 l 3.70416,-3.42194 v 9.63081 z m 14.78135,0 -6.06776,-8.99581 h 8.81942 l 6.13832,8.99581 z m -6.45582,-8.71359 -3.70416,-3.77471 h 6.73804 q 1.72861,0 2.54,-0.77611 0.84666,-0.77611 0.84666,-2.11666 0,-1.34056 -0.84666,-2.11667 -0.81139,-0.77611 -2.54,-0.77611 h -6.73804 l 3.70416,-3.77471 z m 30.90329,9.27804 q -2.9986,0 -5.57387,-0.9525 -2.54,-0.9525 -4.40971,-2.68111 -1.86972,-1.76388 -2.92805,-4.12749 -1.02306,-2.3636 -1.02306,-5.15054 0,-2.82222 1.02306,-5.15055 1.05833,-2.3636 2.92805,-4.09221 1.86971,-1.76388 4.40971,-2.71638 2.57527,-0.9525 5.57387,-0.9525 3.03389,0 5.57388,0.9525 2.54,0.9525 4.40971,2.71638 1.86972,1.72861 2.89277,4.09221 1.05834,2.32833 1.05834,5.15055 0,2.78694 -1.05834,5.15054 -1.02305,2.36361 -2.89277,4.12749 -1.86971,1.72861 -4.40971,2.68111 -2.53999,0.9525 -5.57388,0.9525 z m 0,-6.73804 q 1.16417,0 2.15194,-0.42334 1.02306,-0.42333 1.76389,-1.19944 0.77611,-0.81139 1.19944,-1.94027 0.42333,-1.16417 0.42333,-2.61055 0,-1.44639 -0.42333,-2.57527 -0.42333,-1.16417 -1.19944,-1.94028 -0.74083,-0.81138 -1.76389,-1.23472 -0.98777,-0.42333 -2.15194,-0.42333 -1.16416,0 -2.18721,0.42333 -0.98778,0.42334 -1.76389,1.23472 -0.74083,0.77611 -1.16416,1.94028 -0.42333,1.12888 -0.42333,2.57527 0,1.44638 0.42333,2.61055 0.42333,1.12888 1.16416,1.94027 0.77611,0.77611 1.76389,1.19944 1.02305,0.42334 2.18721,0.42334 z m 16.96856,6.17359 v -24.69439 h 11.88859 q 3.45721,0 5.96193,1.12889 2.53999,1.12889 3.91582,3.24555 1.37583,2.08138 1.37583,4.93888 0,2.85749 -1.37583,4.93887 -1.37583,2.04611 -3.91582,3.13972 -2.50472,1.09361 -5.96193,1.09361 h -7.26721 l 3.70416,-3.42194 v 9.63081 z m 14.78136,0 -6.06777,-8.99581 h 8.81943 l 6.13832,8.99581 z m -6.45582,-8.71359 -3.70416,-3.77471 h 6.73804 q 1.72861,0 2.54,-0.77611 0.84666,-0.77611 0.84666,-2.11666 0,-1.34056 -0.84666,-2.11667 -0.81139,-0.77611 -2.54,-0.77611 h -6.73804 l 3.70416,-3.77471 z"
       id="text1-8-7"
       transform="rotate(-5.8279329)"
       aria-label="ERROR" />
    <path
       style="font-size:35.2777px;font-family:Montserrat;-inkscape-font-specification:'Montserrat, @wght=900';font-variation-settings:'wght' 900;text-align:center;letter-spacing:0px;text-anchor:middle;fill:#fafafa;stroke-width:1.5;stroke-linecap:round"
       d="m 233.62403,315.2951 h 11.00664 v 5.99721 h -11.00664 z m 0.56445,9.24276 h 12.34719 v 6.27943 H 226.00405 V 306.1229 h 20.07301 v 6.27943 h -11.88858 z m 15.55747,6.27943 V 306.1229 h 11.88859 q 3.45721,0 5.96193,1.12889 2.53999,1.12889 3.91582,3.24555 1.37583,2.08138 1.37583,4.93887 0,2.8575 -1.37583,4.93888 -1.37583,2.04611 -3.91582,3.13972 -2.50472,1.09361 -5.96193,1.09361 h -7.26721 l 3.70416,-3.42194 v 9.63081 z m 14.78136,0 -6.06777,-8.99581 h 8.81943 l 6.13832,8.99581 z m -6.45582,-8.71359 -3.70416,-3.77471 h 6.73804 q 1.72861,0 2.54,-0.77611 0.84666,-0.77611 0.84666,-2.11667 0,-1.34055 -0.84666,-2.11666 -0.81139,-0.77611 -2.54,-0.77611 h -6.73804 l 3.70416,-3.77471 z m 17.95638,8.71359 V 306.1229 h 11.88858 q 3.45722,0 5.96193,1.12889 2.54,1.12889 3.91583,3.24555 1.37583,2.08138 1.37583,4.93887 0,2.8575 -1.37583,4.93888 -1.37583,2.04611 -3.91583,3.13972 -2.50471,1.09361 -5.96193,1.09361 h -7.2672 l 3.70416,-3.42194 v 9.63081 z m 14.78135,0 -6.06776,-8.99581 h 8.81942 l 6.13832,8.99581 z m -6.45581,-8.71359 -3.70416,-3.77471 h 6.73804 q 1.7286,0 2.53999,-0.77611 0.84667,-0.77611 0.84667,-2.11667 0,-1.34055 -0.84667,-2.11666 -0.81139,-0.77611 -2.53999,-0.77611 h -6.73804 l 3.70416,-3.77471 z m 30.90329,9.27803 q -2.99861,0 -5.57388,-0.95249 -2.53999,-0.9525 -4.40971,-2.68111 -1.86972,-1.76388 -2.92805,-4.12749 -1.02305,-2.36361 -1.02305,-5.15054 0,-2.82222 1.02305,-5.15055 1.05833,-2.3636 2.92805,-4.09221 1.86972,-1.76389 4.40971,-2.71638 2.57527,-0.9525 5.57388,-0.9525 3.03388,0 5.57387,0.9525 2.54,0.95249 4.40972,2.71638 1.86971,1.72861 2.89277,4.09221 1.05833,2.32833 1.05833,5.15055 0,2.78693 -1.05833,5.15054 -1.02306,2.36361 -2.89277,4.12749 -1.86972,1.72861 -4.40972,2.68111 -2.53999,0.95249 -5.57387,0.95249 z m 0,-6.73804 q 1.16416,0 2.15194,-0.42333 1.02305,-0.42333 1.76388,-1.19944 0.77611,-0.81139 1.19944,-1.94027 0.42334,-1.16417 0.42334,-2.61055 0,-1.44639 -0.42334,-2.57528 -0.42333,-1.16416 -1.19944,-1.94027 -0.74083,-0.81139 -1.76388,-1.23472 -0.98778,-0.42333 -2.15194,-0.42333 -1.16417,0 -2.18722,0.42333 -0.98778,0.42333 -1.76388,1.23472 -0.74084,0.77611 -1.16417,1.94027 -0.42333,1.12889 -0.42333,2.57528 0,1.44638 0.42333,2.61055 0.42333,1.12888 1.16417,1.94027 0.7761,0.77611 1.76388,1.19944 1.02305,0.42333 2.18722,0.42333 z m 16.96856,6.1736 V 306.1229 h 11.88858 q 3.45722,0 5.96193,1.12889 2.54,1.12889 3.91583,3.24555 1.37583,2.08138 1.37583,4.93887 0,2.8575 -1.37583,4.93888 -1.37583,2.04611 -3.91583,3.13972 -2.50471,1.09361 -5.96193,1.09361 h -7.26721 l 3.70416,-3.42194 v 9.63081 z m 14.78135,0 -6.06776,-8.99581 h 8.81942 l 6.13832,8.99581 z m -6.45582,-8.71359 -3.70416,-3.77471 h 6.73805 q 1.7286,0 2.53999,-0.77611 0.84666,-0.77611 0.84666,-2.11667 0,-1.34055 -0.84666,-2.11666 -0.81139,-0.77611 -2.53999,-0.77611 h -6.73805 l 3.70416,-3.77471 z"
       id="text1-8-6"
       transform="rotate(-11.548885)"
       aria-label="ERROR" />
    <path
       style="font-size:35.2777px;font-family:Montserrat;-inkscape-font-specification:'Montserrat, @wght=900';font-variation-settings:'wght' 900;text-align:center;letter-spacing:0px;text-anchor:middle;fill:#fafafa;stroke-width:1.5;stroke-linecap:round"
       d="m 320.90022,252.56924 h 11.00664 v 5.99721 h -11.00664 z m 0.56444,9.24276 h 12.34719 v 6.27943 h -20.53162 v -24.69439 h 20.07301 v 6.27943 h -11.88858 z m 15.55748,6.27943 v -24.69439 h 11.88858 q 3.45722,0 5.96193,1.12889 2.54,1.12888 3.91583,3.24555 1.37583,2.08138 1.37583,4.93887 0,2.8575 -1.37583,4.93888 -1.37583,2.04611 -3.91583,3.13972 -2.50471,1.09361 -5.96193,1.09361 h -7.2672 l 3.70415,-3.42194 v 9.63081 z m 14.78135,0 -6.06776,-8.99581 h 8.81942 l 6.13832,8.99581 z m -6.45582,-8.71359 -3.70415,-3.77471 h 6.73804 q 1.7286,0 2.53999,-0.77611 0.84667,-0.77611 0.84667,-2.11667 0,-1.34055 -0.84667,-2.11666 -0.81139,-0.77611 -2.53999,-0.77611 h -6.73804 l 3.70415,-3.77471 z m 17.95638,8.71359 v -24.69439 h 11.88859 q 3.45721,0 5.96193,1.12889 2.53999,1.12888 3.91582,3.24555 1.37583,2.08138 1.37583,4.93887 0,2.8575 -1.37583,4.93888 -1.37583,2.04611 -3.91582,3.13972 -2.50472,1.09361 -5.96193,1.09361 h -7.26721 l 3.70416,-3.42194 v 9.63081 z m 14.78136,0 -6.06777,-8.99581 h 8.81943 l 6.13832,8.99581 z m -6.45582,-8.71359 -3.70416,-3.77471 h 6.73804 q 1.72861,0 2.54,-0.77611 0.84666,-0.77611 0.84666,-2.11667 0,-1.34055 -0.84666,-2.11666 -0.81139,-0.77611 -2.54,-0.77611 h -6.73804 l 3.70416,-3.77471 z m 30.90329,9.27803 q -2.9986,0 -5.57387,-0.95249 -2.54,-0.9525 -4.40972,-2.68111 -1.86971,-1.76388 -2.92805,-4.12749 -1.02305,-2.36361 -1.02305,-5.15054 0,-2.82222 1.02305,-5.15055 1.05834,-2.3636 2.92805,-4.09221 1.86972,-1.76389 4.40972,-2.71638 2.57527,-0.9525 5.57387,-0.9525 3.03388,0 5.57388,0.9525 2.53999,0.95249 4.40971,2.71638 1.86972,1.72861 2.89277,4.09221 1.05833,2.32833 1.05833,5.15055 0,2.78693 -1.05833,5.15054 -1.02305,2.36361 -2.89277,4.12749 -1.86972,1.72861 -4.40971,2.68111 -2.54,0.95249 -5.57388,0.95249 z m 0,-6.73804 q 1.16417,0 2.15194,-0.42333 1.02305,-0.42333 1.76389,-1.19944 0.77611,-0.81139 1.19944,-1.94027 0.42333,-1.16417 0.42333,-2.61055 0,-1.44639 -0.42333,-2.57528 -0.42333,-1.16416 -1.19944,-1.94027 -0.74084,-0.81139 -1.76389,-1.23472 -0.98777,-0.42333 -2.15194,-0.42333 -1.16416,0 -2.18722,0.42333 -0.98777,0.42333 -1.76388,1.23472 -0.74083,0.77611 -1.16416,1.94027 -0.42334,1.12889 -0.42334,2.57528 0,1.44638 0.42334,2.61055 0.42333,1.12888 1.16416,1.94027 0.77611,0.77611 1.76388,1.19944 1.02306,0.42333 2.18722,0.42333 z m 16.96856,6.1736 v -24.69439 h 11.88858 q 3.45722,0 5.96194,1.12889 2.53999,1.12888 3.91582,3.24555 1.37583,2.08138 1.37583,4.93887 0,2.8575 -1.37583,4.93888 -1.37583,2.04611 -3.91582,3.13972 -2.50472,1.09361 -5.96194,1.09361 h -7.2672 l 3.70416,-3.42194 v 9.63081 z m 14.78136,0 -6.06777,-8.99581 h 8.81943 l 6.13832,8.99581 z m -6.45582,-8.71359 -3.70416,-3.77471 h 6.73804 q 1.72861,0 2.53999,-0.77611 0.84667,-0.77611 0.84667,-2.11667 0,-1.34055 -0.84667,-2.11666 -0.81138,-0.77611 -2.53999,-0.77611 h -6.73804 l 3.70416,-3.77471 z"
       id="text1-8-1"
       transform="rotate(-5.8279329)"
       aria-label="ERROR" />
    <path
       style="font-size:35.2777px;font-family:Montserrat;-inkscape-font-specification:'Montserrat, @wght=900';font-variation-settings:'wght' 900;text-align:center;letter-spacing:0px;text-anchor:middle;fill:#fafafa;stroke-width:1.5;stroke-linecap:round"
       d="m 359.03828,225.06653 h 11.00664 v 5.99721 h -11.00664 z m 0.56444,9.24275 h 12.3472 v 6.27943 H 351.4183 v -24.69438 h 20.07301 v 6.27943 h -11.88859 z m 15.55748,6.27943 v -24.69438 h 11.88858 q 3.45722,0 5.96193,1.12888 2.54,1.12889 3.91583,3.24555 1.37583,2.08138 1.37583,4.93888 0,2.85749 -1.37583,4.93888 -1.37583,2.0461 -3.91583,3.13971 -2.50471,1.09361 -5.96193,1.09361 h -7.2672 l 3.70416,-3.42194 v 9.63081 z m 14.78135,0 -6.06776,-8.99581 h 8.81942 l 6.13832,8.99581 z m -6.45581,-8.71359 -3.70416,-3.77471 h 6.73804 q 1.7286,0 2.53999,-0.77611 0.84667,-0.77611 0.84667,-2.11666 0,-1.34055 -0.84667,-2.11666 -0.81139,-0.77611 -2.53999,-0.77611 h -6.73804 l 3.70416,-3.77472 z m 17.95637,8.71359 v -24.69438 h 11.88859 q 3.45721,0 5.96193,1.12888 2.53999,1.12889 3.91582,3.24555 1.37583,2.08138 1.37583,4.93888 0,2.85749 -1.37583,4.93888 -1.37583,2.0461 -3.91582,3.13971 -2.50472,1.09361 -5.96193,1.09361 h -7.26721 l 3.70416,-3.42194 v 9.63081 z m 14.78136,0 -6.06776,-8.99581 h 8.81942 l 6.13832,8.99581 z m -6.45582,-8.71359 -3.70416,-3.77471 h 6.73804 q 1.72861,0 2.54,-0.77611 0.84666,-0.77611 0.84666,-2.11666 0,-1.34055 -0.84666,-2.11666 -0.81139,-0.77611 -2.54,-0.77611 h -6.73804 l 3.70416,-3.77472 z m 30.90329,9.27804 q -2.9986,0 -5.57387,-0.9525 -2.54,-0.9525 -4.40972,-2.68111 -1.86971,-1.76388 -2.92804,-4.12749 -1.02306,-2.3636 -1.02306,-5.15054 0,-2.82222 1.02306,-5.15054 1.05833,-2.36361 2.92804,-4.09222 1.86972,-1.76388 4.40972,-2.71638 2.57527,-0.9525 5.57387,-0.9525 3.03389,0 5.57388,0.9525 2.53999,0.9525 4.40971,2.71638 1.86972,1.72861 2.89277,4.09222 1.05833,2.32832 1.05833,5.15054 0,2.78694 -1.05833,5.15054 -1.02305,2.36361 -2.89277,4.12749 -1.86972,1.72861 -4.40971,2.68111 -2.53999,0.9525 -5.57388,0.9525 z m 0,-6.73804 q 1.16417,0 2.15194,-0.42334 1.02306,-0.42333 1.76389,-1.19944 0.77611,-0.81138 1.19944,-1.94027 0.42333,-1.16416 0.42333,-2.61055 0,-1.44639 -0.42333,-2.57527 -0.42333,-1.16417 -1.19944,-1.94028 -0.74083,-0.81138 -1.76389,-1.23471 -0.98777,-0.42334 -2.15194,-0.42334 -1.16416,0 -2.18721,0.42334 -0.98778,0.42333 -1.76389,1.23471 -0.74083,0.77611 -1.16416,1.94028 -0.42334,1.12888 -0.42334,2.57527 0,1.44639 0.42334,2.61055 0.42333,1.12889 1.16416,1.94027 0.77611,0.77611 1.76389,1.19944 1.02305,0.42334 2.18721,0.42334 z m 16.96856,6.17359 v -24.69438 h 11.88859 q 3.45721,0 5.96193,1.12888 2.53999,1.12889 3.91582,3.24555 1.37583,2.08138 1.37583,4.93888 0,2.85749 -1.37583,4.93888 -1.37583,2.0461 -3.91582,3.13971 -2.50472,1.09361 -5.96193,1.09361 h -7.26721 l 3.70416,-3.42194 v 9.63081 z m 14.78136,0 -6.06777,-8.99581 h 8.81943 l 6.13832,8.99581 z m -6.45582,-8.71359 -3.70416,-3.77471 h 6.73804 q 1.72861,0 2.54,-0.77611 0.84666,-0.77611 0.84666,-2.11666 0,-1.34055 -0.84666,-2.11666 -0.81139,-0.77611 -2.54,-0.77611 h -6.73804 l 3.70416,-3.77472 z"
       id="text1-8-18"
       transform="rotate(-5.8279329)"
       aria-label="ERROR" />
    <path
       style="font-size:35.2777px;font-family:Montserrat;-inkscape-font-specification:'Montserrat, @wght=900';font-variation-settings:'wght' 900;text-align:center;letter-spacing:0px;text-anchor:middle;fill:#fafafa;stroke-width:1.5;stroke-linecap:round"
       d="m 208.56141,190.63193 h 11.00664 v 5.99721 h -11.00664 z m 0.56444,9.24275 h 12.3472 v 6.27943 h -20.53162 v -24.69439 h 20.07301 v 6.27944 h -11.88859 z m 15.55748,6.27943 v -24.69439 h 11.88859 q 3.45721,0 5.96193,1.12889 2.53999,1.12889 3.91582,3.24555 1.37583,2.08138 1.37583,4.93888 0,2.85749 -1.37583,4.93888 -1.37583,2.0461 -3.91582,3.13971 -2.50472,1.09361 -5.96193,1.09361 h -7.26721 l 3.70416,-3.42194 v 9.63081 z m 14.78136,0 -6.06777,-8.99581 h 8.81943 l 6.13832,8.99581 z m -6.45582,-8.71359 -3.70416,-3.77471 h 6.73804 q 1.72861,0 2.53999,-0.77611 0.84667,-0.77611 0.84667,-2.11666 0,-1.34056 -0.84667,-2.11666 -0.81138,-0.77611 -2.53999,-0.77611 h -6.73804 l 3.70416,-3.77472 z m 17.95638,8.71359 v -24.69439 h 11.88858 q 3.45722,0 5.96193,1.12889 2.54,1.12889 3.91583,3.24555 1.37583,2.08138 1.37583,4.93888 0,2.85749 -1.37583,4.93888 -1.37583,2.0461 -3.91583,3.13971 -2.50471,1.09361 -5.96193,1.09361 h -7.2672 l 3.70415,-3.42194 v 9.63081 z m 14.78135,0 -6.06776,-8.99581 h 8.81942 l 6.13832,8.99581 z m -6.45582,-8.71359 -3.70415,-3.77471 h 6.73804 q 1.7286,0 2.53999,-0.77611 0.84666,-0.77611 0.84666,-2.11666 0,-1.34056 -0.84666,-2.11666 -0.81139,-0.77611 -2.53999,-0.77611 h -6.73804 l 3.70415,-3.77472 z m 30.9033,9.27804 q -2.99861,0 -5.57388,-0.9525 -2.53999,-0.9525 -4.40971,-2.68111 -1.86972,-1.76388 -2.92805,-4.12749 -1.02306,-2.3636 -1.02306,-5.15054 0,-2.82222 1.02306,-5.15054 1.05833,-2.36361 2.92805,-4.09222 1.86972,-1.76388 4.40971,-2.71638 2.57527,-0.9525 5.57388,-0.9525 3.03388,0 5.57387,0.9525 2.54,0.9525 4.40971,2.71638 1.86972,1.72861 2.89278,4.09222 1.05833,2.32832 1.05833,5.15054 0,2.78694 -1.05833,5.15054 -1.02306,2.36361 -2.89278,4.12749 -1.86971,1.72861 -4.40971,2.68111 -2.53999,0.9525 -5.57387,0.9525 z m 0,-6.73804 q 1.16416,0 2.15194,-0.42334 1.02305,-0.42333 1.76388,-1.19944 0.77611,-0.81138 1.19944,-1.94027 0.42333,-1.16417 0.42333,-2.61055 0,-1.44639 -0.42333,-2.57527 -0.42333,-1.16417 -1.19944,-1.94028 -0.74083,-0.81138 -1.76388,-1.23472 -0.98778,-0.42333 -2.15194,-0.42333 -1.16417,0 -2.18722,0.42333 -0.98778,0.42334 -1.76389,1.23472 -0.74083,0.77611 -1.16416,1.94028 -0.42333,1.12888 -0.42333,2.57527 0,1.44638 0.42333,2.61055 0.42333,1.12889 1.16416,1.94027 0.77611,0.77611 1.76389,1.19944 1.02305,0.42334 2.18722,0.42334 z m 16.96855,6.17359 v -24.69439 h 11.88859 q 3.45721,0 5.96193,1.12889 2.53999,1.12889 3.91582,3.24555 1.37583,2.08138 1.37583,4.93888 0,2.85749 -1.37583,4.93888 -1.37583,2.0461 -3.91582,3.13971 -2.50472,1.09361 -5.96193,1.09361 h -7.26721 l 3.70416,-3.42194 v 9.63081 z m 14.78136,0 -6.06776,-8.99581 h 8.81942 l 6.13832,8.99581 z m -6.45582,-8.71359 -3.70416,-3.77471 h 6.73804 q 1.72861,0 2.54,-0.77611 0.84666,-0.77611 0.84666,-2.11666 0,-1.34056 -0.84666,-2.11666 -0.81139,-0.77611 -2.54,-0.77611 h -6.73804 l 3.70416,-3.77472 z"
       id="text1-8-4"
       transform="rotate(5.1271909)"
       aria-label="ERROR" />
  </g>
</svg>
