<?xml version="1.0" encoding="UTF-8" standalone="no"?>
<svg
   width="42.577965mm"
   height="43.235432mm"
   viewBox="0 0 42.577965 43.235432"
   version="1.1"
   id="svg1"
   xml:space="preserve"
   xmlns:inkscape="http://www.inkscape.org/namespaces/inkscape"
   xmlns:sodipodi="http://sodipodi.sourceforge.net/DTD/sodipodi-0.dtd"
   xmlns="http://www.w3.org/2000/svg"
   xmlns:svg="http://www.w3.org/2000/svg">

  <sodipodi:namedview
     id="namedview1"
     pagecolor="#ffffff"
     bordercolor="#000000"
     borderopacity="0.25"
     inkscape:showpageshadow="2"
     inkscape:pageopacity="0.0"
     inkscape:pagecheckerboard="0"
     inkscape:deskcolor="#d1d1d1"
     inkscape:document-units="mm"
     inkscape:current-layer="layer1" />

  <defs id="defs1">
    <!-- Clip path preserved from original -->
    <inkscape:path-effect
       effect="powerclip"
       message=""
       id="path-effect4"
       is_visible="true"
       lpeversion="1"
       inverse="true"
       flatten="false"
       hide_clip="false" />
    <clipPath clipPathUnits="userSpaceOnUse" id="clipPath4">
      <path
         style="font-variation-settings:'wght' 900;display:none;fill:#ffffff;fill-opacity:1;stroke:none;stroke-width:0.161836;stroke-linecap:round;stroke-opacity:1"
         d="m 23.512804,16.057359 -7.404733,-2.575559 -3.138963,2.776778 2.414587,7.565703 5.231606,-2.937748 z"
         id="path4" />
      <path
         id="lpe_path-effect4"
         style="font-variation-settings:'wght' 900;fill:#ffffff;fill-opacity:1;stroke:none;stroke-width:0.161836;stroke-linecap:round;stroke-opacity:1"
         class="powerclip"
         d="M -4,-4 H 28 V 28 H -4 Z m 27.512804,20.057359 -7.404733,-2.575559 -3.138963,2.776778 2.414587,7.565703 5.231606,-2.937748 z" />
    </clipPath>

    <!-- Gradient: bottom-left (#db2777) to top-right (#1d4ed8) -->
    <linearGradient id="strokeGradient" x1="0%" y1="100%" x2="100%" y2="0%" gradientUnits="objectBoundingBox">
      <stop offset="0%" stop-color="#db2777"/>
      <stop offset="100%" stop-color="#1d4ed8"/>
    </linearGradient>

    <!-- Mask: renders all strokes in white on black so gradient shows through -->
    <mask id="strokeMask" maskUnits="userSpaceOnUse" x="0" y="0" width="42.577965" height="43.235432">
      <g transform="translate(-87.016275,-140.32558)">
        <g
           style="fill:none;stroke:white;stroke-width:2;stroke-linecap:round;stroke-linejoin:round"
           id="g1m"
           transform="matrix(1.6348841,0,0,1.6348841,85.381391,138.6907)"
           clip-path="url(#clipPath4)">
          <path
             id="circle1m"
             sodipodi:type="arc"
             sodipodi:cx="12"
             sodipodi:cy="12"
             sodipodi:rx="10"
             sodipodi:ry="10"
             d="M 22,12 A 10,10 0 0 1 12,22 10,10 0 0 1 2,12 10,10 0 0 1 12,2 10,10 0 0 1 22,12 Z" />
          <path
             id="circle2m"
             sodipodi:type="arc"
             sodipodi:cx="12"
             sodipodi:cy="12"
             sodipodi:rx="6"
             sodipodi:ry="6"
             d="m 18,12 a 6,6 0 0 1 -6,6 6,6 0 0 1 -6,-6 6,6 0 0 1 6,-6 6,6 0 0 1 6,6 z" />
          <path
             id="circle3m"
             sodipodi:type="arc"
             sodipodi:cx="12"
             sodipodi:cy="12"
             sodipodi:rx="2"
             sodipodi:ry="2"
             d="m 14,12 a 2,2 0 0 1 -2,2 2,2 0 0 1 -2,-2 2,2 0 0 1 2,-2 2,2 0 0 1 2,2 z" />
        </g>
        <g
           style="fill:none;stroke:white;stroke-width:2;stroke-linecap:round;stroke-linejoin:round"
           id="g2m"
           transform="matrix(1.265734,0,0,1.265734,103.01521,156.98544)">
          <path d="M 12.586,12.586 19,19" id="path1m" />
          <path
             d="M 3.688,3.037 A 0.497,0.497 0 0 0 3.037,3.688 l 6.5,15.999 a 0.501,0.501 0 0 0 0.947,-0.062 l 1.569,-6.083 a 2,2 0 0 1 1.448,-1.479 l 6.124,-1.579 a 0.5,0.5 0 0 0 0.063,-0.947 z"
             id="path2m" />
        </g>
      </g>
    </mask>
  </defs>

  <!-- Gradient rect masked to show only stroke shapes -->
  <rect
     x="0" y="0"
     width="42.577965"
     height="43.235432"
     fill="url(#strokeGradient)"
     mask="url(#strokeMask)" />

</svg>
